<svg width="49" height="49" viewBox="0 0 49 49" fill="none" xmlns="http://www.w3.org/2000/svg">
<path d="M12.9727 8.64234C16.7479 5.8917 21.3823 4.58008 26.0391 4.94312C30.6959 5.30641 35.071 7.3212 38.3741 10.6238C41.6771 13.9269 43.6923 18.3026 44.0557 22.9597C44.4189 27.6167 43.1072 32.2508 40.3565 36.0261C37.6055 39.8016 33.5953 42.4703 29.0508 43.5515C24.6933 44.5879 20.1181 44.0982 16.085 42.1765L6.81936 44.0671C6.29333 44.1743 5.74791 44.0111 5.36819 43.6316C4.98866 43.2518 4.82434 42.7056 4.93167 42.1794L6.82131 32.9158C4.89918 28.8822 4.41058 24.306 5.44729 19.948C6.52848 15.4036 9.19735 11.3933 12.9727 8.64234ZM16.5 22.4998C15.3956 22.4998 14.5002 23.3953 14.5 24.4998C14.5 25.6043 15.3955 26.4997 16.5 26.4998C17.6046 26.4997 18.5 25.6043 18.5 24.4998C18.4999 23.3953 17.6045 22.4998 16.5 22.4998ZM24.5 22.4998C23.3956 22.4998 22.5002 23.3953 22.5 24.4998C22.5 25.6043 23.3955 26.4998 24.5 26.4998C25.6046 26.4997 26.5 25.6043 26.5 24.4998C26.4999 23.3954 25.6045 22.4998 24.5 22.4998ZM32.5 22.4998C31.3956 22.4998 30.5002 23.3953 30.5 24.4998C30.5 25.6043 31.3955 26.4998 32.5 26.4998C33.6046 26.4997 34.5 25.6043 34.5 24.4998C34.4999 23.3953 33.6045 22.4998 32.5 22.4998Z" fill="#DFD8D2"/>
</svg>
