<svg width="32" height="32" viewBox="0 0 32 32" fill="none" xmlns="http://www.w3.org/2000/svg">
<path fill-rule="evenodd" clip-rule="evenodd" d="M22.6666 12H9.33325V20H22.6666V12Z" fill="#FFDE9D"/>
<path fill-rule="evenodd" clip-rule="evenodd" d="M5.33325 4.66699C3.12411 4.66699 1.33325 6.45785 1.33325 8.66699V23.3337C1.33325 25.5428 3.12411 27.3337 5.33325 27.3337H7.99992C10.2091 27.3337 11.9999 25.5428 11.9999 23.3337V8.66699C11.9999 6.45785 10.2091 4.66699 7.99992 4.66699H5.33325ZM23.9999 4.66699C21.7908 4.66699 19.9999 6.45785 19.9999 8.66699V23.3337C19.9999 25.5428 21.7908 27.3337 23.9999 27.3337H26.6666C28.8757 27.3337 30.6666 25.5428 30.6666 23.3337V8.66699C30.6666 6.45785 28.8757 4.66699 26.6666 4.66699H23.9999Z" fill="#FFBC3A"/>
</svg>
