<svg width="32" height="32" viewBox="0 0 32 32" fill="none" xmlns="http://www.w3.org/2000/svg">
<path d="M18.4989 4.40823C17.6398 2.08658 14.3561 2.08658 13.497 4.40823L12.59 6.85949L9.90515 5.62496C7.65603 4.59077 5.3341 6.9127 6.36829 9.16182L7.78694 12.2471L4.40774 13.4975C2.08609 14.3566 2.08609 17.6403 4.40774 18.4994L7.46127 19.6293L6.36829 22.0063C5.3341 24.2554 7.65603 26.5773 9.90515 25.5431L12.3279 24.4291L13.497 27.5886C14.3561 29.9103 17.6398 29.9103 18.4989 27.5886L19.7638 24.1702L22.7496 25.5431C24.9987 26.5773 27.3206 24.2554 26.2865 22.0063L25.0977 19.4209L27.5881 18.4994C29.9098 17.6403 29.9098 14.3566 27.5881 13.4975L24.772 12.4554L26.2865 9.16182C27.3206 6.9127 24.9987 4.59077 22.7496 5.62496L19.5017 7.11839L18.4989 4.40823Z" fill="#FFBC3A"/>
</svg>
