<svg width="32" height="32" viewBox="0 0 32 32" fill="none" xmlns="http://www.w3.org/2000/svg">
<path d="M5.11592 7.37277C5.2526 4.52075 8.44579 2.94014 10.2928 4.81026L13.4577 8.01487C14.2344 7.87626 15.0389 7.80345 15.8629 7.80345C16.6813 7.80345 17.4803 7.87526 18.252 8.01202L21.4141 4.81034C23.2611 2.94021 26.4543 4.52082 26.5909 7.37285L26.9261 14.3656C27.4425 15.5188 27.7258 16.7728 27.7258 18.0841C27.7258 23.762 22.4146 28.3648 15.8629 28.3648C9.3112 28.3648 4 23.762 4 18.0841C4 16.7909 4.27554 15.5534 4.77851 14.4134L5.11592 7.37277Z" fill="#FFBC3A"/>
</svg>
