<svg width="20" height="19" viewBox="0 0 20 19" fill="none" xmlns="http://www.w3.org/2000/svg">
<g id="Group 1373">
<path id="Rectangle 40074" d="M6.96338 15.5097C7.14049 15.1949 7.47368 15 7.83495 15H12.1653C12.5265 15 12.8597 15.1949 13.0368 15.5097L14.1618 17.5097C14.5368 18.1763 14.0551 19 13.2903 19H6.70995C5.94513 19 5.46341 18.1763 5.83838 17.5097L6.96338 15.5097Z" fill="#FFDE9D"/>
<path id="Rectangle 40053" d="M1 3C1 1.89543 1.89543 1 3 1H17C18.1046 1 19 1.89543 19 3V12C19 13.1046 18.1046 14 17 14H3C1.89543 14 1 13.1046 1 12V3Z" fill="#FFBC3A" stroke="#FFBC3A" stroke-width="2"/>
<path id="Rectangle 40072" d="M6 12C6 11.4477 6.44772 11 7 11H13C13.5523 11 14 11.4477 14 12C14 12.5523 13.5523 13 13 13H7C6.44772 13 6 12.5523 6 12Z" fill="#FFDE9D"/>
</g>
</svg>
