<svg width="17" height="18" viewBox="0 0 17 18" fill="none" xmlns="http://www.w3.org/2000/svg">
<g id="Group 1377">
<path id="Rectangle 40060" d="M0 2C0 0.89543 0.895431 0 2 0H13C14.1046 0 15 0.895431 15 2V16C15 17.1046 14.1046 18 13 18H2C0.89543 18 0 17.1046 0 16V2Z" fill="#FFBC3A"/>
<path id="Rectangle 33" d="M14.1317 5.35348C14.3269 5.15822 14.6435 5.15822 14.8388 5.35348L15.5459 6.06058C15.7411 6.25585 15.7411 6.57243 15.5459 6.76769L8.97753 13.336C8.8664 13.4472 8.73063 13.5305 8.58125 13.5794L6.70703 14.1923L7.31996 12.3181C7.36881 12.1687 7.45218 12.0329 7.56332 11.9218L14.1317 5.35348Z" fill="#FFDE9D" stroke="#FFDE9D" stroke-width="2" stroke-linejoin="round"/>
</g>
</svg>
