<svg width="32" height="32" viewBox="0 0 32 32" fill="none" xmlns="http://www.w3.org/2000/svg">
<rect x="2.66675" y="6.66602" width="26.6667" height="21.3333" rx="4" fill="#FFBC3A"/>
<path d="M2.66675 10.666C2.66675 8.45688 4.45761 6.66602 6.66675 6.66602H25.3334C27.5426 6.66602 29.3334 8.45688 29.3334 10.666V13.9173C29.3334 15.1409 28.5006 16.2075 27.3135 16.5043L16.9702 19.0901C16.3333 19.2494 15.6669 19.2494 15.0299 19.0901L4.68665 16.5043C3.49954 16.2075 2.66675 15.1409 2.66675 13.9173V10.666Z" fill="#FFDE9D"/>
<path fill-rule="evenodd" clip-rule="evenodd" d="M9.4668 6.66647C9.4668 4.53097 11.198 2.7998 13.3335 2.7998H18.6668C20.8023 2.7998 22.5335 4.53097 22.5335 6.66647H20.1335C20.1335 5.85646 19.4768 5.1998 18.6668 5.1998H13.3335C12.5234 5.1998 11.8668 5.85645 11.8668 6.66647H9.4668Z" fill="#FFBC3A"/>
</svg>
