<svg width="24" height="24" viewBox="0 0 24 24" fill="none" xmlns="http://www.w3.org/2000/svg">
<path d="M19 4.8V4.8C19 3.80589 18.1941 3 17.2 3H6C4.89543 3 4 3.89543 4 5V19C4 20.1046 4.89543 21 6 21H17C18.1046 21 19 20.1046 19 19V15.6" stroke="#524A44" stroke-width="2" stroke-linecap="round"/>
<path d="M16.6349 7.53865C17.0255 7.14812 17.6586 7.14813 18.0491 7.53865L19.2929 8.78242C19.6834 9.17294 19.6834 9.80611 19.2929 10.1966L12.4038 17.0858C12.2691 17.2204 12.0988 17.3139 11.9128 17.355L10.1666 17.7415C9.42257 17.9062 8.77511 17.2114 8.99181 16.4808L9.46741 14.8773C9.51477 14.7176 9.60126 14.5723 9.71902 14.4546L16.6349 7.53865Z" stroke="#524A44" stroke-width="2"/>
</svg>
