<svg width="32" height="32" viewBox="0 0 32 32" fill="none" xmlns="http://www.w3.org/2000/svg">
<path d="M5.33301 6.66667C5.33301 5.19391 6.52692 4 7.99967 4H22.6663C24.1391 4 25.333 5.19391 25.333 6.66667V25.3333C25.333 26.8061 24.1391 28 22.6663 28H7.99967C6.52692 28 5.33301 26.8061 5.33301 25.3333V6.66667Z" fill="#FFBC3A"/>
<path d="M24.1756 11.1376C24.436 10.8773 24.8581 10.8773 25.1184 11.1376L26.0612 12.0805C26.3216 12.3408 26.3216 12.7629 26.0612 13.0233L17.3035 21.781C17.1553 21.9292 16.9743 22.0404 16.7751 22.1055L14.2761 22.9228L15.0934 20.4238C15.1585 20.2246 15.2697 20.0436 15.4178 19.8954L24.1756 11.1376Z" fill="#FFDE9D" stroke="#FFDE9D" stroke-width="4" stroke-linejoin="round"/>
</svg>
