<svg width="20" height="18" viewBox="0 0 20 18" fill="none" xmlns="http://www.w3.org/2000/svg">
<g id="Group 1376">
<mask id="mask0_2053_1319" style="mask-type:alpha" maskUnits="userSpaceOnUse" x="0" y="0" width="20" height="18">
<path id="Union" d="M2 0C0.895431 0 0 0.895431 0 2V14C0 15.1046 0.89543 16 2 16H5.7889C6.5786 16 7.35063 16.2338 8.0077 16.6718L9.2604 17.5069C9.70827 17.8055 10.2917 17.8055 10.7396 17.5069L11.9923 16.6718C12.6494 16.2338 13.4214 16 14.2111 16H18C19.1046 16 20 15.1046 20 14V2C20 0.895431 19.1046 0 18 0H14C11.7909 0 10 1.79086 10 4C10 1.79086 8.20914 0 6 0H2Z" fill="#B8AFA8"/>
</mask>
<g mask="url(#mask0_2053_1319)">
<g id="Vector">
<path d="M0 2C0 0.895431 0.895431 0 2 0H6C8.20914 0 10 1.79086 10 4V18L8.0077 16.6718C7.35063 16.2338 6.5786 16 5.7889 16H2C0.89543 16 0 15.1046 0 14V2Z" fill="#FFBC3A"/>
<path d="M10 4C10 1.79086 11.7909 0 14 0H18C19.1046 0 20 0.895431 20 2V14C20 15.1046 19.1046 16 18 16H14.2111C13.4214 16 12.6494 16.2338 11.9923 16.6718L10 18V4Z" fill="#FFBC3A"/>
</g>
<path id="Vector 173" d="M10 6V14" stroke="#FFDE9D" stroke-width="1.33333" stroke-linecap="round"/>
</g>
</g>
</svg>
