<svg width="32" height="32" viewBox="0 0 32 32" fill="none" xmlns="http://www.w3.org/2000/svg">
<path d="M16.0001 1.33301C16.8101 1.33301 17.4668 1.98966 17.4668 2.79967V4.26634C17.4668 5.07636 16.8101 5.73301 16.0001 5.73301C15.1901 5.73301 14.5335 5.07636 14.5335 4.26634V2.79967C14.5335 1.98966 15.1901 1.33301 16.0001 1.33301Z" fill="#FFBC3A"/>
<path d="M26.3711 5.62834C26.9439 6.20111 26.9439 7.12975 26.3711 7.70252L25.334 8.73961C24.7613 9.31238 23.8326 9.31238 23.2599 8.73961C22.6871 8.16684 22.6871 7.2382 23.2599 6.66543L24.297 5.62834C24.8697 5.05557 25.7984 5.05557 26.3711 5.62834Z" fill="#FFBC3A"/>
<path d="M5.62922 5.62877C6.20199 5.05601 7.13063 5.05601 7.7034 5.62877L8.74049 6.66586C9.31326 7.23863 9.31326 8.16728 8.74049 8.74005C8.16772 9.31281 7.23908 9.31281 6.66631 8.74005L5.62922 7.70295C5.05645 7.13019 5.05645 6.20154 5.62922 5.62877Z" fill="#FFBC3A"/>
<path d="M1.33337 15.9992C1.33337 15.1892 1.99002 14.5326 2.80004 14.5326H4.26671C5.07673 14.5326 5.73337 15.1892 5.73337 15.9992C5.73337 16.8093 5.07673 17.4659 4.26671 17.4659H2.80004C1.99002 17.4659 1.33337 16.8093 1.33337 15.9992Z" fill="#FFBC3A"/>
<path d="M26.2667 15.9992C26.2667 15.1892 26.9234 14.5326 27.7334 14.5326H29.2C30.0101 14.5326 30.6667 15.1892 30.6667 15.9992C30.6667 16.8093 30.0101 17.4659 29.2 17.4659H27.7334C26.9234 17.4659 26.2667 16.8093 26.2667 15.9992Z" fill="#FFBC3A"/>
<path d="M6.66642 23.2589C7.23919 22.6861 8.16784 22.6861 8.7406 23.2589C9.31337 23.8316 9.31337 24.7603 8.7406 25.333L7.70351 26.3701C7.13074 26.9429 6.2021 26.9429 5.62933 26.3701C5.05656 25.7974 5.05656 24.8687 5.62933 24.296L6.66642 23.2589Z" fill="#FFBC3A"/>
<path d="M23.2597 23.2593C23.8325 22.6865 24.7612 22.6865 25.3339 23.2593L26.371 24.2964C26.9438 24.8692 26.9438 25.7978 26.371 26.3706C25.7983 26.9433 24.8696 26.9433 24.2968 26.3706L23.2597 25.3335C22.687 24.7607 22.687 23.8321 23.2597 23.2593Z" fill="#FFBC3A"/>
<path d="M16.0001 26.2663C16.8101 26.2663 17.4668 26.923 17.4668 27.733V29.1997C17.4668 30.0097 16.8101 30.6663 16.0001 30.6663C15.1901 30.6663 14.5335 30.0097 14.5335 29.1997V27.733C14.5335 26.923 15.1901 26.2663 16.0001 26.2663Z" fill="#FFBC3A"/>
<circle cx="16" cy="16" r="8" fill="#FFBC3A"/>
<path d="M17.4668 2.79967C17.4668 1.98966 16.8101 1.33301 16.0001 1.33301C15.1901 1.33301 14.5335 1.98966 14.5335 2.79967V4.26634C14.5335 5.07636 15.1901 5.73301 16.0001 5.73301C16.8101 5.73301 17.4668 5.07636 17.4668 4.26634V2.79967Z" fill="#FFBC3A"/>
<path d="M26.3711 7.70252C26.9439 7.12975 26.9439 6.20111 26.3711 5.62834C25.7984 5.05557 24.8697 5.05557 24.297 5.62834L23.2599 6.66543C22.6871 7.2382 22.6871 8.16684 23.2599 8.73961C23.8326 9.31238 24.7613 9.31238 25.334 8.73961L26.3711 7.70252Z" fill="#FFBC3A"/>
<path d="M5.62922 5.62877C6.20199 5.05601 7.13063 5.05601 7.7034 5.62877L8.74049 6.66586C9.31326 7.23863 9.31326 8.16728 8.74049 8.74005C8.16772 9.31281 7.23908 9.31281 6.66631 8.74005L5.62922 7.70295C5.05645 7.13019 5.05645 6.20154 5.62922 5.62877Z" fill="#FFBC3A"/>
<path d="M2.80004 14.5326C1.99002 14.5326 1.33337 15.1892 1.33337 15.9992C1.33337 16.8093 1.99002 17.4659 2.80004 17.4659H4.26671C5.07673 17.4659 5.73337 16.8093 5.73337 15.9992C5.73337 15.1892 5.07673 14.5326 4.26671 14.5326H2.80004Z" fill="#FFBC3A"/>
<path d="M26.2667 15.9992C26.2667 15.1892 26.9234 14.5326 27.7334 14.5326H29.2C30.0101 14.5326 30.6667 15.1892 30.6667 15.9992C30.6667 16.8093 30.0101 17.4659 29.2 17.4659H27.7334C26.9234 17.4659 26.2667 16.8093 26.2667 15.9992Z" fill="#FFBC3A"/>
<path d="M8.7406 23.2589C8.16784 22.6861 7.23919 22.6861 6.66642 23.2589L5.62933 24.296C5.05656 24.8687 5.05656 25.7974 5.62933 26.3701C6.2021 26.9429 7.13074 26.9429 7.70351 26.3701L8.7406 25.333C9.31337 24.7603 9.31337 23.8316 8.7406 23.2589Z" fill="#FFBC3A"/>
<path d="M23.2597 23.2593C23.8325 22.6865 24.7612 22.6865 25.3339 23.2593L26.371 24.2964C26.9438 24.8692 26.9438 25.7978 26.371 26.3706C25.7983 26.9433 24.8696 26.9433 24.2968 26.3706L23.2597 25.3335C22.687 24.7607 22.687 23.8321 23.2597 23.2593Z" fill="#FFBC3A"/>
<path d="M17.4668 27.733C17.4668 26.923 16.8101 26.2663 16.0001 26.2663C15.1901 26.2663 14.5335 26.923 14.5335 27.733V29.1997C14.5335 30.0097 15.1901 30.6663 16.0001 30.6663C16.8101 30.6663 17.4668 30.0097 17.4668 29.1997V27.733Z" fill="#FFBC3A"/>
<path d="M16 23.9997C20.4183 23.9997 24 20.418 24 15.9997C24 11.5814 20.4183 7.99968 16 7.99968C11.5818 7.99968 8.00004 11.5814 8.00004 15.9997C8.00004 20.418 11.5818 23.9997 16 23.9997Z" fill="#FFBC3A"/>
</svg>
