<svg width="32" height="32" viewBox="0 0 32 32" fill="none" xmlns="http://www.w3.org/2000/svg">
<mask id="mask0_2370_2153" style="mask-type:alpha" maskUnits="userSpaceOnUse" x="2" y="4" width="28" height="24">
<path d="M5.33317 4C3.86041 4 2.6665 5.19391 2.6665 6.66667V22.6667C2.6665 24.1394 3.86041 25.3333 5.33317 25.3333H10.385C11.438 25.3333 12.4673 25.645 13.3434 26.2291L14.5206 27.0139C15.4164 27.611 16.5833 27.611 17.479 27.0139L18.6562 26.2291C19.5323 25.645 20.5617 25.3333 21.6146 25.3333H26.6665C28.1393 25.3333 29.3332 24.1394 29.3332 22.6667V6.66667C29.3332 5.19391 28.1393 4 26.6665 4H21.3332C18.3877 4 15.9998 6.38781 15.9998 9.33333C15.9998 6.38781 13.612 4 10.6665 4H5.33317Z" fill="#B8AFA8"/>
</mask>
<g mask="url(#mask0_2370_2153)">
<path d="M2.6665 6.66667C2.6665 5.19391 3.86041 4 5.33317 4H10.6665C13.612 4 15.9998 6.38781 15.9998 9.33333V28L13.3434 26.2291C12.4673 25.645 11.438 25.3333 10.385 25.3333H5.33317C3.86041 25.3333 2.6665 24.1394 2.6665 22.6667V6.66667Z" fill="#FFBC3A"/>
<path d="M15.9998 9.33333C15.9998 6.38781 18.3877 4 21.3332 4H26.6665C28.1393 4 29.3332 5.19391 29.3332 6.66667V22.6667C29.3332 24.1394 28.1393 25.3333 26.6665 25.3333H21.6146C20.5617 25.3333 19.5323 25.645 18.6562 26.2291L15.9998 28V9.33333Z" fill="#FFBC3A"/>
<path d="M16 12V22.6667" stroke="#FFDE9D" stroke-width="2.66667" stroke-linecap="round"/>
</g>
</svg>
