<svg width="32" height="32" viewBox="0 0 32 32" fill="none" xmlns="http://www.w3.org/2000/svg">
<path d="M16 26.6663C16 26.6663 3.99892 18.0684 4 11.636C4.00024 10.1792 4.49998 8.76748 5.41425 7.64079C6.32852 6.51411 7.60089 5.74204 9.01503 5.45586C10.4292 5.16967 11.8978 5.38704 13.1712 6.071C14.4446 6.75496 15.4442 7.86329 16 9.20756C16.5558 7.86329 17.5554 6.75496 18.8288 6.071C20.1022 5.38704 21.5708 5.16967 22.985 5.45586C24.3991 5.74204 25.6715 6.51411 26.5857 7.64079C27.5 8.76748 27.9998 10.1792 28 11.636C28 18.0684 16 26.6663 16 26.6663Z" fill="#FFBC3A"/>
<path d="M16 26.6663L15.5341 27.3167L16 27.6505L16.4659 27.3166L16 26.6663ZM4 11.636L3.2 11.6359L4 11.636ZM16 9.20756L15.2607 9.51324C15.3844 9.81243 15.6763 10.0076 16 10.0076C16.3238 10.0076 16.6156 9.81243 16.7393 9.51324L16 9.20756ZM28 11.636H28.8V11.6359L28 11.636ZM16 26.6663C16.4659 26.016 16.466 26.0161 16.466 26.0161C16.466 26.016 16.4659 26.016 16.4658 26.0159C16.4656 26.0158 16.4652 26.0155 16.4646 26.0151C16.4635 26.0143 16.4616 26.0129 16.459 26.0111C16.4539 26.0074 16.4459 26.0016 16.4352 25.9938C16.4137 25.9783 16.3813 25.9547 16.3387 25.9234C16.2535 25.8608 16.1274 25.7674 15.9663 25.6458C15.644 25.4025 15.1819 25.0468 14.6268 24.5995C13.5153 23.7039 12.0366 22.446 10.5608 20.9932C9.08185 19.5372 7.62497 17.9039 6.54296 16.2586C5.45055 14.5975 4.79977 13.0131 4.8 11.6362L3.2 11.6359C3.19969 13.4751 4.04864 15.3777 5.20613 17.1377C6.37402 18.9136 7.9172 20.6359 9.43836 22.1334C10.9628 23.6341 12.4842 24.9278 13.6229 25.8453C14.1929 26.3046 14.6684 26.6708 15.0024 26.9229C15.1694 27.049 15.3012 27.1465 15.3917 27.213C15.437 27.2463 15.472 27.2718 15.496 27.2891C15.508 27.2978 15.5172 27.3045 15.5236 27.3091C15.5268 27.3114 15.5292 27.3132 15.531 27.3144C15.5319 27.3151 15.5326 27.3156 15.5331 27.316C15.5333 27.3161 15.5336 27.3163 15.5337 27.3164C15.5339 27.3166 15.5341 27.3167 16 26.6663ZM4.8 11.6362C4.80021 10.3621 5.23733 9.12844 6.03546 8.14488L4.79305 7.13671C3.76263 8.40652 3.20027 9.99639 3.2 11.6359L4.8 11.6362ZM6.03546 8.14488C6.83345 7.16149 7.9427 6.48908 9.17371 6.23996L8.85634 4.67175C7.25908 4.99499 5.8236 5.86672 4.79305 7.13671L6.03546 8.14488ZM9.17371 6.23996C10.4046 5.99085 11.6833 6.17991 12.7926 6.77577L13.5497 5.36622C12.1123 4.59417 10.4537 4.34849 8.85634 4.67175L9.17371 6.23996ZM12.7926 6.77577C13.9022 7.37173 14.775 8.33847 15.2607 9.51324L16.7393 8.90188C16.1134 7.38811 14.987 6.13818 13.5497 5.36622L12.7926 6.77577ZM16.7393 9.51324C17.225 8.33847 18.0978 7.37173 19.2074 6.77577L18.4503 5.36623C17.013 6.13819 15.8866 7.38811 15.2607 8.90188L16.7393 9.51324ZM19.2074 6.77577C20.3167 6.17991 21.5954 5.99086 22.8263 6.23996L23.1437 4.67175C21.5463 4.34849 19.8877 4.59417 18.4503 5.36623L19.2074 6.77577ZM22.8263 6.23996C24.0573 6.48908 25.1665 7.16149 25.9645 8.14488L27.2069 7.1367C26.1764 5.86672 24.7409 4.99499 23.1437 4.67175L22.8263 6.23996ZM25.9645 8.14488C26.7627 9.12844 27.1998 10.3621 27.2 11.6362L28.8 11.6359C28.7997 9.99639 28.2374 8.40652 27.2069 7.1367L25.9645 8.14488ZM27.2 11.636C27.2 13.013 26.5491 14.5974 25.4566 16.2586C24.3745 17.9039 22.9177 19.5372 21.4387 20.9932C19.9631 22.446 18.4844 23.7039 17.373 24.5995C16.8179 25.0468 16.3559 25.4026 16.0337 25.6458C15.8726 25.7674 15.7465 25.8608 15.6612 25.9234C15.6186 25.9547 15.5862 25.9783 15.5648 25.9938C15.5541 26.0016 15.5461 26.0074 15.5409 26.0111C15.5384 26.0129 15.5365 26.0143 15.5353 26.0151C15.5348 26.0155 15.5344 26.0158 15.5342 26.016C15.534 26.016 15.534 26.0161 15.534 26.0161C15.534 26.0161 15.5341 26.016 16 26.6663C16.4659 27.3166 16.4661 27.3165 16.4663 27.3164C16.4664 27.3163 16.4667 27.3161 16.4669 27.3159C16.4675 27.3156 16.4682 27.3151 16.469 27.3144C16.4708 27.3132 16.4733 27.3114 16.4765 27.3091C16.4828 27.3045 16.4921 27.2978 16.5041 27.2891C16.528 27.2717 16.563 27.2463 16.6083 27.213C16.6988 27.1465 16.8306 27.0489 16.9976 26.9229C17.3316 26.6708 17.8071 26.3046 18.377 25.8453C19.5156 24.9278 21.0369 23.6341 22.5613 22.1334C24.0823 20.6359 25.6255 18.9136 26.7934 17.1377C27.9509 15.3777 28.8 13.4752 28.8 11.636H27.2Z" fill="#FFBC3A"/>
</svg>
