<svg width="32" height="33" viewBox="0 0 32 33" fill="none" xmlns="http://www.w3.org/2000/svg">
<path d="M17.0672 4.7937C18.525 4.79398 19.7071 5.97569 19.7071 7.43354V25.5671C19.7068 27.0248 18.5249 28.2067 17.0672 28.207H14.9336C13.4758 28.207 12.2941 27.0249 12.2938 25.5671V7.43354C12.2938 5.97551 13.4756 4.7937 14.9336 4.7937H17.0672ZM26.4001 12.7937C27.858 12.7938 29.0399 13.9756 29.0399 15.4335V25.5671C29.0396 27.0249 27.8578 28.2068 26.4001 28.207H24.2665C22.8087 28.2068 21.6269 27.0248 21.6266 25.5671V15.4335C21.6266 13.9756 22.8085 12.7938 24.2665 12.7937H26.4001ZM7.73364 10.1265C9.19148 10.1267 10.3734 11.3085 10.3735 12.7664V25.5664C10.3735 27.0243 9.19156 28.2061 7.73364 28.2062H5.60005C4.14202 28.2062 2.96021 27.0244 2.96021 25.5664V12.7664C2.96034 11.3084 4.1421 10.1265 5.60005 10.1265H7.73364ZM5.60005 12.2062C5.29085 12.2062 5.04002 12.4572 5.03989 12.7664V25.5664C5.03989 25.8756 5.29077 26.1265 5.60005 26.1265H7.73364C8.0428 26.1264 8.29302 25.8755 8.29302 25.5664V12.7664C8.29289 12.4573 8.04272 12.2063 7.73364 12.2062H5.60005ZM14.9336 6.87339C14.6244 6.87339 14.3735 7.12427 14.3735 7.43354V25.5671C14.3738 25.8762 14.6245 26.1265 14.9336 26.1265H17.0672C17.3761 26.1262 17.6263 25.876 17.6266 25.5671V7.43354C17.6266 7.12444 17.3763 6.87367 17.0672 6.87339H14.9336ZM24.2665 14.8734C23.9573 14.8735 23.7063 15.1244 23.7063 15.4335V25.5671C23.7066 25.8761 23.9575 26.1264 24.2665 26.1265H26.4001C26.709 26.1264 26.9592 25.8761 26.9594 25.5671V15.4335C26.9594 15.1244 26.7092 14.8735 26.4001 14.8734H24.2665Z" fill="#B8AFA8"/>
</svg>
