<svg width="33" height="33" viewBox="0 0 33 33" fill="none" xmlns="http://www.w3.org/2000/svg">
<path d="M17.5672 4.7937C19.025 4.79398 20.2071 5.97569 20.2071 7.43354V25.5671C20.2068 27.0248 19.0249 28.2067 17.5672 28.207H15.4336C13.9758 28.207 12.7941 27.0249 12.7938 25.5671V7.43354C12.7938 5.97551 13.9756 4.7937 15.4336 4.7937H17.5672ZM26.9001 12.7937C28.358 12.7938 29.5399 13.9756 29.5399 15.4335V25.5671C29.5396 27.0249 28.3578 28.2068 26.9001 28.207H24.7665C23.3087 28.2068 22.1269 27.0248 22.1266 25.5671V15.4335C22.1266 13.9756 23.3085 12.7938 24.7665 12.7937H26.9001ZM8.23364 10.1265C9.69148 10.1267 10.8734 11.3085 10.8735 12.7664V25.5664C10.8735 27.0243 9.69156 28.2061 8.23364 28.2062H6.10005C4.64202 28.2062 3.46021 27.0244 3.46021 25.5664V12.7664C3.46034 11.3084 4.6421 10.1265 6.10005 10.1265H8.23364Z" fill="#524A44"/>
</svg>
