<svg width="17" height="16" viewBox="0 0 17 16" fill="none" xmlns="http://www.w3.org/2000/svg">
<path d="M9.41618 2.20411C8.98664 1.04329 7.34479 1.04329 6.91525 2.20411L6.46172 3.42974L5.11932 2.81248C3.99476 2.29539 2.8338 3.45635 3.35089 4.58091L4.06022 6.12354L2.37062 6.74874C1.20979 7.17829 1.20979 8.82014 2.37062 9.24968L3.89738 9.81464L3.35089 11.0031C2.8338 12.1277 3.99476 13.2887 5.11932 12.7716L6.33069 12.2146L6.91525 13.7943C7.34479 14.9551 8.98664 14.9551 9.41619 13.7943L10.0486 12.0851L11.5415 12.7716C12.6661 13.2887 13.8271 12.1277 13.31 11.0031L12.7156 9.71046L13.9608 9.24968C15.1216 8.82014 15.1216 7.17829 13.9608 6.74874L12.5527 6.22771L13.31 4.58091C13.8271 3.45635 12.6661 2.29539 11.5415 2.81248L9.91761 3.5592L9.41618 2.20411Z" fill="#FFBC3A"/>
</svg>
