<svg width="24" height="24" viewBox="0 0 24 24" fill="none" xmlns="http://www.w3.org/2000/svg">
<mask id="path-1-inside-1_2446_2130" fill="white">
<path d="M21 12C21 16.9706 16.9706 21 12 21C7.02944 21 3 16.9706 3 12C3 7.02944 7.02944 3 12 3C16.9706 3 21 7.02944 21 12Z"/>
</mask>
<path d="M19 12C19 15.866 15.866 19 12 19V23C18.0751 23 23 18.0751 23 12H19ZM12 19C8.13401 19 5 15.866 5 12H1C1 18.0751 5.92487 23 12 23V19ZM5 12C5 8.13401 8.13401 5 12 5V1C5.92487 1 1 5.92487 1 12H5ZM12 5C15.866 5 19 8.13401 19 12H23C23 5.92487 18.0751 1 12 1V5Z" fill="#DFD8D2" mask="url(#path-1-inside-1_2446_2130)"/>
</svg>
