<svg width="24" height="24" viewBox="0 0 24 24" fill="none" xmlns="http://www.w3.org/2000/svg">
<path fill-rule="evenodd" clip-rule="evenodd" d="M12 21C16.9706 21 21 16.9706 21 12C21 7.02944 16.9706 3 12 3C7.02944 3 3 7.02944 3 12C3 16.9706 7.02944 21 12 21ZM16.259 10.0511C16.6186 9.63194 16.5703 9.00062 16.1511 8.64102C15.7319 8.28143 15.1006 8.32974 14.741 8.74892L11.0885 13.0067L9.13397 11.4044C8.70686 11.0543 8.07678 11.1167 7.72664 11.5438C7.37651 11.9709 7.43891 12.601 7.86603 12.9512L10.5768 15.1734C10.9972 15.518 11.6159 15.4637 11.9698 15.0511L16.259 10.0511Z" fill="#FFBC3A"/>
</svg>
