<svg width="24" height="24" viewBox="0 0 24 24" fill="none" xmlns="http://www.w3.org/2000/svg">
<path d="M7.5 12.5C7.5 13.3284 6.82843 14 6 14C5.17157 14 4.5 13.3284 4.5 12.5C4.5 11.6716 5.17157 11 6 11C6.82843 11 7.5 11.6716 7.5 12.5Z" fill="#524A44"/>
<path d="M13.5 12.5C13.5 13.3284 12.8284 14 12 14C11.1716 14 10.5 13.3284 10.5 12.5C10.5 11.6716 11.1716 11 12 11C12.8284 11 13.5 11.6716 13.5 12.5Z" fill="#524A44"/>
<path d="M19.5 12.5C19.5 13.3284 18.8284 14 18 14C17.1716 14 16.5 13.3284 16.5 12.5C16.5 11.6716 17.1716 11 18 11C18.8284 11 19.5 11.6716 19.5 12.5Z" fill="#524A44"/>
</svg>
