<svg width="20" height="20" viewBox="0 0 20 20" fill="none" xmlns="http://www.w3.org/2000/svg">
<g id="Icon">
<path id="Vector 176" d="M14.617 7.99252C12.4259 5.42934 11.6666 4.58333 10.8333 2.5C7.49992 4.58333 6.66659 6.25 8.56601 9.94957C6.66659 11.25 5.37555 10.1936 4.99992 9.58333C3.44942 11.1805 2.70305 13.1951 4.18744 15.3974C6.54085 18.8891 12.4251 19.5701 15.4207 15.7767C17.4955 13.1493 16.8081 10.5557 14.617 7.99252Z" fill="#FFBC3A" stroke="#FFBC3A" stroke-width="1.6" stroke-linecap="round" stroke-linejoin="round"/>
<path id="Ellipse 3" d="M12.0832 16.1108C12.0832 17.6449 11.1504 18.333 9.99984 18.333C8.84924 18.333 7.9165 17.6449 7.9165 16.1108C7.9165 14.5767 9.99984 13.333 9.99984 13.333C9.99984 13.333 12.0832 14.5767 12.0832 16.1108Z" fill="#FFDE9D" stroke="#FFDE9D" stroke-width="1.6"/>
</g>
</svg>
