<svg width="25" height="24" viewBox="0 0 25 24" fill="none" xmlns="http://www.w3.org/2000/svg">
<path d="M8.5 13.5C9.25776 13.5 9.98449 13.2366 10.5203 12.7678C11.0561 12.2989 11.3571 11.663 11.3571 11C11 9.5 10.2143 9.5 9.64286 8.5C8.41771 6.357 9.95829 4.946 12.5 3C13.5 5 15.2143 7.4 17.5 9C19.7857 10.6 20.5 13 20.5 15C20.5 15.9193 20.2931 16.8295 19.891 17.6788C19.489 18.5281 18.8997 19.2997 18.1569 19.9497C17.414 20.5998 16.5321 21.1154 15.5615 21.4672C14.5909 21.8189 13.5506 22 12.5 22C11.4494 22 10.4091 21.8189 9.43853 21.4672C8.46793 21.1154 7.58601 20.5998 6.84315 19.9497C6.10028 19.2997 5.511 18.5281 5.10896 17.6788C4.70693 16.8295 4.5 15.9193 4.5 15C4.5 12.847 4.99486 11.706 5.64286 11C5.64286 11.663 5.94388 12.2989 6.47969 12.7678C7.01551 13.2366 7.74224 13.5 8.5 13.5Z" stroke="#8F867E" stroke-width="2" stroke-linecap="round" stroke-linejoin="round"/>
<path d="M15 19.3333C15 21.1743 13.8807 22 12.5 22C11.1193 22 10 21.1743 10 19.3333C10 17.4924 12.5 16 12.5 16C12.5 16 15 17.4924 15 19.3333Z" stroke="#524A44" stroke-width="2"/>
</svg>
