<svg width="32" height="33" viewBox="0 0 32 33" fill="none" xmlns="http://www.w3.org/2000/svg">
<path fill-rule="evenodd" clip-rule="evenodd" d="M16.8276 7.52248C16.3427 7.13856 15.6573 7.13856 15.1724 7.52248L7.1724 13.8558C6.85295 14.1087 6.66667 14.4938 6.66667 14.9012V23.8334C6.66667 24.5698 7.26362 25.1667 8 25.1667H12V19.8334C12 18.3606 13.1939 17.1667 14.6667 17.1667H17.3333C18.8061 17.1667 20 18.3606 20 19.8334V25.1667H24C24.7364 25.1667 25.3333 24.5698 25.3333 23.8334V14.9012C25.3333 14.4938 25.147 14.1087 24.8276 13.8558L16.8276 7.52248ZM13.5172 5.43169C14.972 4.27993 17.028 4.27993 18.4828 5.43169L26.4828 11.765C27.4411 12.5237 28 13.6789 28 14.9012V23.8334C28 26.0425 26.2091 27.8334 24 27.8334H20C18.5272 27.8334 17.3333 26.6395 17.3333 25.1667V19.8334H14.6667V25.1667C14.6667 26.6395 13.4728 27.8334 12 27.8334H8C5.79086 27.8334 4 26.0425 4 23.8334V14.9012C4 13.6789 4.55885 12.5237 5.51719 11.765L13.5172 5.43169Z" fill="#B8AFA8"/>
</svg>
