<svg width="24" height="24" viewBox="0 0 24 24" fill="none" xmlns="http://www.w3.org/2000/svg">
<rect x="9" y="5" width="6" height="7" rx="3" stroke="#DFD8D2" stroke-width="2"/>
<path fill-rule="evenodd" clip-rule="evenodd" d="M7 9C5.89543 9 5 9.89543 5 11V18C5 19.1046 5.89543 20 7 20H17C18.1046 20 19 19.1046 19 18V11C19 9.89543 18.1046 9 17 9H7ZM12 16C12.8284 16 13.5 15.3284 13.5 14.5C13.5 13.6716 12.8284 13 12 13C11.1716 13 10.5 13.6716 10.5 14.5C10.5 15.3284 11.1716 16 12 16Z" fill="#DFD8D2"/>
</svg>
