<svg width="24" height="24" viewBox="0 0 24 24" fill="none" xmlns="http://www.w3.org/2000/svg">
<path d="M12 17V21M7.91667 6.79167C7.23101 6.62025 6.75 6.00419 6.75 5.29743V4.96543C6.75 3.87996 7.62996 3 8.71543 3H15.2846C16.37 3 17.25 3.87996 17.25 4.96543V5.29743C17.25 6.00419 16.769 6.62025 16.0833 6.79167C15.7405 6.87737 15.5 7.18541 15.5 7.53879V10.3208C15.5 10.6655 15.6776 10.986 15.97 11.1688L18.06 12.475C18.6448 12.8405 19 13.4814 19 14.171V15C19 16.1046 18.1046 17 17 17H7C5.89543 17 5 16.1046 5 15V14.171C5 13.4814 5.35524 12.8405 5.94 12.475L8.03 11.1688C8.32238 10.986 8.5 10.6655 8.5 10.3208V7.53879C8.5 7.18541 8.2595 6.87737 7.91667 6.79167Z" stroke="#F47A0A" stroke-width="2" stroke-linecap="round" stroke-linejoin="round"/>
</svg>
