<svg width="24" height="24" viewBox="0 0 24 24" fill="none" xmlns="http://www.w3.org/2000/svg">
<path d="M19 15.0312V14.171C19 13.4814 18.6448 12.8405 18.06 12.475L15.97 11.1687C15.6776 10.986 15.5 10.6655 15.5 10.3208V7.53879C15.5 7.18541 15.7405 6.87737 16.0833 6.79167C16.769 6.62025 17.25 6.00419 17.25 5.29743V4.96543C17.25 3.87996 16.37 3 15.2846 3H8.71544C8.25658 3 7.83446 3.15724 7.5 3.42077M6.985 11.8219L5.94 12.475C5.35524 12.8405 5 13.4814 5 14.171V15C5 16.1046 5.89543 17 7 17H12V21M4 4L20 20" stroke="#B8AFA8" stroke-width="2" stroke-linecap="round" stroke-linejoin="round"/>
</svg>
