<svg width="32" height="32" viewBox="0 0 32 32" fill="none" xmlns="http://www.w3.org/2000/svg">
<g id="Icon">
<g id="Vector">
<path d="M7.21163 24.1405C7.19538 24.0948 7.1542 24.0773 7.11428 24.0799C7.14383 24.1248 7.17255 24.1563 7.21163 24.1405Z" fill="white"/>
<path d="M6.8348 25.3667C6.8348 25.3667 6.84433 25.306 6.8493 25.2789C6.81148 25.3147 6.79404 25.3559 6.8348 25.3667Z" fill="white"/>
<path d="M7.06301 17.9776L6.93379 18.1528C7.08101 18.1569 7.03478 18.0596 7.06301 17.9776Z" fill="white"/>
<path d="M6.53276 15.2924L6.5294 15.2392C6.47533 15.2292 6.41461 15.2197 6.34724 15.2106L6.53276 15.2924Z" fill="white"/>
<path d="M6.86583 13.2674C6.71112 13.2504 6.63583 13.2218 6.60004 13.1839C6.52686 13.1886 6.44702 13.1936 6.33517 13.2207C6.3248 13.2681 6.69865 13.2646 6.85918 13.2678L6.86583 13.2674Z" fill="white"/>
<path d="M6.91282 7.34597L6.89076 7.31397C6.81757 7.31859 6.75062 7.31614 6.68408 7.32034L6.91324 7.35263L6.91282 7.34597Z" fill="white"/>
<path d="M7.70816 28.0904C7.70816 28.0904 7.70774 28.0838 7.70732 28.0771C7.61872 28.0493 7.66074 28.08 7.70816 28.0904Z" fill="white"/>
<path d="M24.6496 20.7016C24.2927 20.5505 24.6555 20.1602 24.1938 20.0423C24.3003 20.1425 24.3206 20.6756 24.6496 20.7016Z" fill="white"/>
<path d="M13.9368 28.6658C13.8869 28.6155 13.8453 28.5914 13.7966 28.5611C13.8186 28.5931 13.854 28.6242 13.9368 28.6658Z" fill="white"/>
<path d="M15.1048 27.1692C15.158 27.1658 15.2001 27.1966 15.2221 27.1217C15.2079 27.1092 15.1942 27.1034 15.1805 27.0976C15.1905 27.1504 15.1863 27.1908 15.1048 27.1692Z" fill="white"/>
<path d="M16.5405 26.1033C16.5405 26.1033 16.4918 26.073 16.471 26.0609L16.4407 26.1096L16.5472 26.1029L16.5405 26.1033Z" fill="white"/>
<path d="M29.2412 13.7585C29.1488 13.5639 29.0243 13.3914 28.8745 13.2406C28.738 13.0889 28.5824 12.9517 28.4139 12.8221C28.2587 12.6916 28.0973 12.5682 27.9292 12.4452C28.0587 12.063 27.8189 11.6506 27.4702 11.3119C27.2988 11.1357 27.1016 10.9744 26.8985 10.8269C26.6805 10.6537 26.574 10.5535 26.4978 10.4047C26.5195 10.5369 26.2618 10.7937 26.1421 10.8012C26.0846 10.6312 25.6186 10.9745 25.9036 10.5157L25.939 10.5468C26.1071 10.0352 25.7993 10.0279 25.6179 9.9058L25.2416 10.504C25.2545 9.33423 23.7742 10.1157 23.9545 9.16247C23.7528 9.24868 23.6072 9.16435 23.3989 9.25098L23.5921 8.92483C23.3146 8.65511 23.1727 8.52379 22.7226 8.37853L22.9379 8.19126C22.7216 8.0446 22.1192 8.97774 21.8991 8.87807L22.113 8.35022C21.7119 8.13506 21.5502 7.47728 20.9099 7.70474C20.9589 7.63485 21.0508 7.50213 21.1252 7.51747C20.9442 7.40198 20.5841 6.77676 20.2752 7.49098C20.5144 7.04836 19.8903 7.21468 19.5677 7.28849L19.7821 6.98103C19.3677 7.29444 19.3012 7.40551 18.9789 7.3791C18.9406 7.30136 19.0743 7.09252 19.1023 7.21767C18.9977 6.93703 18.7756 7.4387 18.629 7.12731L18.8331 6.97415C18.6438 6.83246 18.5981 6.95558 18.3487 7.13165C18.1454 7.19124 18.0025 6.83287 18.1367 6.5238C18.0066 6.68565 17.7638 6.8613 17.6876 6.71247C17.7333 6.58935 17.8177 6.55062 17.8564 6.52814C17.6365 6.1145 17.1341 6.6205 17.0723 6.17017C17.1254 6.05993 17.1416 5.99879 17.1387 5.95222C17.4095 6.11548 17.6187 6.2559 17.5859 6.26466C17.7541 5.9668 17.5561 5.79226 17.9701 5.47221C17.6641 5.59841 17.0896 5.91524 16.953 5.65666C16.9575 5.62297 16.9621 5.58929 16.9854 5.53438L17.024 5.5119C16.9936 5.4537 16.9337 5.45748 16.8618 5.48206C16.8227 5.39101 16.7989 5.33239 16.7361 5.2896C16.8466 5.02879 16.5584 5.01358 16.4535 4.94004C16.2807 5.27159 16.1655 5.13859 16.1474 5.48708C16.1453 5.45382 16.1923 5.45753 16.2676 5.48618C16.2875 5.48492 16.3145 5.48989 16.3341 5.48198L16.3087 5.50362C16.384 5.53226 16.4872 5.57919 16.5974 5.63235C16.4178 5.75057 16.2499 5.84133 16.2273 5.58892C16.0515 5.76702 15.869 5.94553 15.7809 6.03126C15.8871 5.49016 15.7342 5.07898 15.8488 4.77782C15.4075 4.77228 14.9869 4.45816 14.43 4.94756C14.2911 4.96969 14.4148 4.70804 14.4343 4.59325C14.5258 4.56075 14.5824 4.61062 14.6647 4.53862C14.3873 4.58953 14.0607 4.28284 13.779 4.68806C13.6449 4.36253 14.1331 4.37179 13.765 4.25475L13.8851 4.14697C13.7517 3.62099 13.3322 3.74768 12.9172 3.84068C12.7131 3.88697 12.5018 3.92702 12.3384 3.87722C12.2564 3.849 12.1799 3.80039 12.1212 3.71725C12.0421 3.62873 11.9747 3.51275 11.9105 3.34312C11.9493 3.42751 11.9722 3.47283 11.9435 3.54811C11.5411 3.09924 10.8561 3.04229 10.2665 3.1196C9.65692 3.19816 9.14552 3.35069 8.45973 3.28043C8.09463 3.31684 8.20003 3.61078 8.17235 3.91312L7.89313 3.6168C7.88535 3.81101 7.88422 4.00479 7.89599 4.19109C7.84002 4.4685 7.53516 4.40091 7.22371 4.44061C6.92472 4.46617 6.59877 4.59363 6.71383 5.0406L6.98585 5.11694C6.80837 5.26843 6.83365 5.77451 6.55701 5.62497C6.59321 5.66945 6.78791 5.79075 6.62949 5.8208L6.4315 5.75314C6.49194 5.96976 6.55776 6.166 6.63648 6.35475C6.42629 6.72874 5.82001 6.11906 5.6886 6.78867C5.75989 7.07141 6.29993 7.47819 6.44043 7.3758C6.44827 7.28846 6.57336 7.15365 6.78004 7.14728L6.89118 7.32062C6.9311 7.3181 6.97102 7.31558 7.00471 7.32013C7.00513 7.32679 7.00597 7.34009 7.00639 7.34675L7.13157 9.32947L7.0305 9.31581L7.13409 9.36939L7.15005 9.62222C7.06979 9.6206 7.00199 9.60484 6.96537 9.55372C6.70434 9.75724 7.17547 9.70745 6.87949 9.88646C6.83418 9.90936 6.80673 9.89773 6.78593 9.88568L6.9636 10.0548C6.84839 10.0287 6.57315 10.1129 6.64585 9.99473C6.34707 10.3409 7.09155 10.4943 6.68702 10.6468L6.65207 10.6222C6.81322 10.9528 6.96366 10.7963 7.23315 10.8327L7.2466 11.0456L6.57137 11.2486L6.98017 11.2695C6.96981 11.3169 6.94242 11.4122 6.78148 11.4023C7.07184 11.5577 6.95944 11.3644 7.22522 11.4478C6.86692 11.6975 7.43728 12.0556 6.79526 12.1496C7.10636 12.2101 7.02134 11.9216 7.24937 12.1476C6.55496 12.2583 7.38678 12.4195 7.08043 12.6459C6.71737 12.6087 6.89772 12.397 6.58472 12.6238C7.19816 12.712 6.47685 13.0314 6.60754 13.1968C7.09366 13.1728 6.83108 13.5635 7.00883 13.8395C6.84789 13.8296 6.77714 14.4019 6.62137 14.6856L6.54153 14.6906C7.03017 14.7065 6.96132 14.9914 7.07372 15.1847C6.78055 15.1966 6.66492 15.1638 6.52513 15.0657L6.53731 15.2587C6.69994 15.2952 6.78356 15.35 6.851 15.466L6.48212 15.4425C6.51804 15.6941 6.94694 15.9275 6.72135 16.2691C6.95506 16.2677 7.30013 16.1257 7.5746 16.1351L7.58552 16.3081C7.47241 16.3152 7.36427 16.2953 7.32141 16.2513C7.34971 16.2762 7.48116 16.3481 7.4051 16.413L7.08357 16.293C6.95974 16.4478 7.34809 16.3565 7.32904 16.4779C7.06956 16.4943 7.14821 16.5762 6.93446 16.5763C6.90574 16.5447 7.03419 16.4631 6.92522 16.4299C6.88704 16.5659 6.73786 16.7423 6.54827 16.8077C6.69381 16.7852 6.90091 16.7855 6.94047 16.8832C6.9764 17.1348 6.62657 16.9898 6.50274 17.1446C6.68617 17.1932 6.51037 17.3713 6.90292 17.3465C6.90754 17.4197 6.72209 17.4447 6.61773 17.4847C6.79912 17.6069 6.70295 18.0939 7.11288 17.9211L7.13739 17.8861C7.13739 17.8861 7.14489 17.899 7.15861 17.9048C7.57847 18.3125 6.99576 18.8169 7.18898 19.2322L7.05591 19.2406C7.2249 19.4838 7.17811 19.8007 7.47597 19.9689C7.48059 20.0421 7.24779 20.1637 7.086 20.1405C7.19799 20.3271 7.34604 20.3445 7.14412 20.6378C6.9053 20.4525 6.94207 20.7174 6.96518 20.4487C6.86804 20.7087 6.65891 20.782 7.03542 21.0321C6.69021 20.9604 6.62178 21.2519 6.72914 21.3654L6.95732 21.1706C7.0123 21.3008 6.99325 21.4222 6.97419 21.5437L6.52421 21.5053C6.01805 22.0583 7.50161 22.3854 6.62153 22.8351C6.94307 22.9551 6.82345 22.5418 7.1903 22.6389C7.14554 22.8822 6.52901 23.1683 6.5274 23.2485C6.3018 23.5901 7.1921 23.5138 7.04719 23.8637C7.20393 23.807 7.62057 23.7406 7.78333 23.9909C7.73857 24.2342 7.13647 24.3256 7.0004 24.1806C6.98331 24.1215 7.03486 24.0916 7.0885 24.0949C7.02358 24.0188 6.95075 23.9232 6.78364 24.0273L6.94542 24.0504C6.7933 24.1803 6.82719 24.5055 6.56309 24.4487C6.72746 24.6186 6.82761 24.5121 6.89863 24.3674C6.69216 24.6944 6.90639 24.8077 6.82353 25.2939C6.89833 25.2091 7.07335 25.1245 7.08421 25.1906C6.98439 25.8315 7.43116 25.3958 7.58691 25.7467C7.42449 26.0309 6.99896 25.8507 7.33974 26.1698C7.29211 26.4734 6.97268 26.3867 6.80838 26.3236C7.0376 26.4628 7.05686 26.6619 7.06281 26.862C7.06875 27.062 7.0352 27.2712 7.07687 27.4022L6.84099 27.2634C6.97994 27.3482 7.03989 27.4513 7.10649 27.5539L7.29511 27.2615C7.31765 27.407 7.39007 27.4959 7.28158 27.5763C7.52776 27.5607 7.6448 27.1926 8.02656 27.2086C8.00134 27.444 8.45546 27.442 8.20241 27.772C7.9393 27.3076 7.93732 28.1227 7.57033 27.8119C7.66642 27.8526 7.73842 27.9349 7.80047 28.0712C7.78345 28.1191 7.72315 28.1162 7.68281 28.1121C7.8375 28.7636 8.18132 27.967 8.58865 28.282C8.39079 28.4281 8.42923 28.7196 8.53695 28.7328C8.3543 28.5907 8.68683 28.3559 8.93091 28.3071C9.11825 28.6293 9.30854 28.3635 9.4346 28.4557L9.31058 28.2898C9.4793 28.1055 9.58666 28.219 9.80706 28.2184C9.75145 28.3956 9.58295 28.266 9.61586 28.3641C9.80706 28.2184 9.87618 28.361 9.97402 28.5352C10.0652 28.7098 10.1959 28.8752 10.3971 28.7824C10.5162 28.9752 10.318 29.2216 10.4403 29.3608C10.8984 29.1047 10.8668 29.7681 11.3582 29.5099C11.2245 29.191 11.2229 29.2713 11.5038 28.9596C11.2818 29.0405 11.046 29.1155 10.8082 29.1572C10.9732 29.0199 11.132 28.8896 11.2687 28.7273C11.0824 28.7391 10.845 28.8944 10.734 28.8279C10.9663 28.5928 10.9243 28.6689 10.8738 28.3982C10.9696 28.646 11.1073 28.6039 11.2349 28.509C11.3696 28.4204 11.4826 28.3064 11.6399 28.4701L11.6895 29.2552C11.959 29.3985 12.1981 29.2699 12.4075 29.0963C12.6162 28.9095 12.8182 28.723 13.1359 28.6763L12.8992 28.6311C12.852 28.3067 13.228 28.4433 13.3418 28.2357C13.4505 28.476 13.6052 28.493 13.7712 28.5827C13.6547 28.4297 14.2094 28.3279 13.8881 27.894L14.2587 28.0509C14.6458 27.9396 14.1579 27.1956 14.4963 27.054C14.5818 27.3492 14.8188 27.401 14.7513 27.7059C14.8473 27.6397 14.9658 27.6122 14.8563 27.4654C15.009 27.556 14.9126 26.9809 15.1484 27.1197C15.1205 26.9945 14.9723 26.7634 15.0887 26.7026C15.1312 26.74 15.1686 26.8044 15.1686 26.8044C15.0887 26.7026 15.2317 26.5333 14.9675 26.3696C15.75 26.8078 15.7605 25.705 16.439 26.083C16.5986 25.8591 16.8026 25.5991 16.9796 25.441C17.0109 25.5125 17.06 25.5494 17.0067 25.5528C17.4143 25.5538 16.7202 24.8227 17.1809 24.8204C17.5895 25.0484 17.1599 25.1223 17.3508 25.1837C17.9073 25.85 17.6417 24.818 18.1459 25.0801L18.1239 25.155C18.4521 25.2745 18.3036 24.6159 18.5955 24.4772C18.5955 24.4772 18.6267 24.5487 18.6691 24.5861C18.5786 24.1042 18.8162 23.7419 18.9857 23.464C19.1132 23.7899 18.98 23.6914 19.2355 23.9291C19.3149 23.8106 18.8751 23.511 19.0334 23.2672C19.2131 23.3628 19.4681 23.3801 19.7061 23.659L19.5162 23.8246C19.9027 24.1275 19.7701 23.6148 19.9298 23.6048L20.0414 23.7848C20.3173 23.5001 20.0097 23.072 20.3701 22.8555L20.2437 22.7566C20.1219 22.2032 20.5718 22.8762 20.5237 22.4317L20.8953 22.8157C20.9435 22.6256 21.0167 22.0933 21.175 21.8495C21.2809 22.2569 21.1493 22.6059 21.1283 22.9079C21.2497 22.82 21.5148 22.5762 21.4252 22.3213C21.4099 22.3958 21.4196 22.5488 21.3239 22.5148C21.2226 22.0736 21.2968 21.7683 21.5462 21.5922C22.1077 22.4452 22.3249 21.336 22.9715 21.8429C23.1728 21.2224 23.9089 21.3496 24.3703 20.933C23.7237 20.4261 24.5029 20.8111 23.9885 20.1755C24.0741 20.0499 24.126 20.0266 24.1614 20.0577L24.1206 20.047C24.1206 20.047 24.1547 20.0582 24.168 20.0573L24.8044 20.1908C25.0265 20.3238 24.7987 20.4183 24.9211 20.5575C25.2129 20.4189 25.2343 20.7582 25.5313 20.8063C25.3245 20.5989 25.3726 20.4088 25.5784 20.3891L25.1546 20.2355C25.2498 19.6283 25.8696 20.5578 25.9649 19.9506L26.0033 20.2421C26.0938 19.9825 26.68 19.7451 26.4717 19.0903C26.562 19.1447 26.738 19.2872 26.6914 19.397C26.8145 19.3358 26.9142 19.2226 26.9932 19.0974C27.036 19.0346 27.0717 18.9655 27.1136 18.8894L27.2894 18.6044C27.4049 18.4235 27.5075 18.25 27.6113 18.0965C27.7223 17.9492 27.8561 17.8472 28.0187 17.7768L28.1427 17.9427C28.1858 17.7796 27.9823 17.5186 28.2534 17.4748C28.3167 17.5242 28.3904 17.6331 28.4402 17.5765C28.4331 17.4634 28.3205 17.0564 28.5138 16.944L28.6429 17.1897C28.9376 16.8838 28.9215 16.5241 28.8016 16.2111C28.6945 15.8905 28.4968 15.6158 28.4521 15.3313C29.0439 15.3942 29.2585 14.7727 29.3036 14.4292L29.3901 14.4238C29.3821 14.1905 29.3279 13.9668 29.2221 13.7731L29.2412 13.7585ZM16.5668 5.25352C16.5668 5.25352 16.5481 5.27475 16.5357 5.28889C16.5789 5.23272 16.6154 5.17698 16.6533 5.14119C16.7531 5.13489 16.7381 5.21599 16.7157 5.2842C16.675 5.27342 16.6338 5.25598 16.5668 5.25352ZM7.11656 9.93829C7.11656 9.93829 7.15606 9.92911 7.1756 9.9212L7.18065 10.001C7.18065 10.001 7.1382 9.96364 7.11656 9.93829Z" fill="white"/>
<path d="M16.2879 5.49157C16.2879 5.49157 16.2617 5.4999 16.2414 5.49451C16.2439 5.53443 16.2456 5.56105 16.2477 5.59431L16.3291 5.50901L16.2879 5.49157Z" fill="white"/>
<path d="M7.11246 17.9144C7.11246 17.9144 7.13781 17.8928 7.16401 17.8844C7.14446 17.8923 7.13781 17.8928 7.11827 17.9007L7.11911 17.914L7.11246 17.9144Z" fill="white"/>
<path d="M6.65036 11.8648L6.73623 11.5321C6.59364 11.6012 6.40531 11.6866 6.3628 11.5423C5.95637 11.9821 6.68336 11.4352 6.65078 11.8715L6.65036 11.8648Z" fill="white"/>
<path d="M6.50795 12.8892C6.4305 12.7204 6.29504 12.9026 6.21478 12.901C6.35499 13.0057 6.38994 13.0302 6.50795 12.8892Z" fill="white"/>
<path d="M6.96295 20.2017L6.62236 20.2032C6.67734 20.3333 6.75543 20.1948 6.96295 20.2017Z" fill="white"/>
<path d="M6.43791 22.4659L6.38755 22.409L6.52825 22.6272L6.43791 22.4659Z" fill="white"/>
<path d="M16.4826 26.5612L16.2021 26.2449C16.176 26.3601 16.4411 26.7508 16.4826 26.5612Z" fill="white"/>
<path d="M20.4963 23.0546C20.6652 23.1909 20.8669 23.2116 20.8193 22.9875C20.7088 23.0345 20.5112 22.9735 20.4963 23.0546Z" fill="white"/>
<path d="M25.4399 9.83688L25.2066 9.84493L25.2774 9.90726L25.4399 9.83688Z" fill="white"/>
</g>
</g>
</svg>
