<svg width="17" height="16" viewBox="0 0 17 16" fill="none" xmlns="http://www.w3.org/2000/svg">
<path d="M8.5 13.3332C8.5 13.3332 2.49946 9.03418 2.5 5.81802C2.50012 5.08962 2.74999 4.38374 3.20713 3.8204C3.66426 3.25705 4.30045 2.87102 5.00751 2.72793C5.71458 2.58484 6.44889 2.69352 7.08559 3.0355C7.7223 3.37748 8.22209 3.93164 8.5 4.60378C8.77792 3.93164 9.2777 3.37748 9.91441 3.0355C10.5511 2.69352 11.2854 2.58484 11.9925 2.72793C12.6996 2.87102 13.3357 3.25705 13.7929 3.8204C14.25 4.38374 14.4999 5.08962 14.5 5.81802C14.5 9.03418 8.5 13.3332 8.5 13.3332Z" fill="#FFBC3A"/>
<path d="M8.5 13.3332L8.03408 13.9835L8.50002 14.3173L8.96594 13.9835L8.5 13.3332ZM2.5 5.81802L1.7 5.81789L2.5 5.81802ZM8.5 4.60378L7.76071 4.90946C7.88442 5.20865 8.17625 5.40378 8.50001 5.40378C8.82376 5.40378 9.11559 5.20865 9.2393 4.90946L8.5 4.60378ZM14.5 5.81802H15.3V5.81789L14.5 5.81802ZM8.5 13.3332C8.96592 12.6828 8.96601 12.6829 8.96607 12.683C8.96606 12.683 8.96611 12.683 8.96609 12.683C8.96606 12.683 8.96594 12.6829 8.96573 12.6827C8.96531 12.6824 8.96452 12.6818 8.96339 12.681C8.96112 12.6794 8.95744 12.6767 8.95239 12.6731C8.9423 12.6658 8.92675 12.6544 8.90611 12.6393C8.86481 12.609 8.80317 12.5633 8.72409 12.5036C8.56587 12.3842 8.33823 12.2089 8.06437 11.9883C7.51545 11.546 6.78672 10.926 6.06104 10.2116C5.33209 9.49393 4.62522 8.69952 4.10569 7.90951C3.57575 7.10368 3.2999 6.39106 3.3 5.81816L1.7 5.81789C1.69983 6.85307 2.17385 7.88387 2.76886 8.78865C3.37427 9.70924 4.16744 10.5926 4.93856 11.3518C5.71294 12.1141 6.48431 12.7699 7.06048 13.2341C7.34916 13.4668 7.59031 13.6525 7.76024 13.7807C7.84524 13.8449 7.91251 13.8947 7.95911 13.9289C7.98242 13.946 8.00056 13.9593 8.01318 13.9684C8.01949 13.973 8.02441 13.9765 8.02791 13.9791C8.02966 13.9803 8.03106 13.9813 8.03209 13.9821C8.0326 13.9824 8.03303 13.9827 8.03336 13.983C8.03353 13.9831 8.03371 13.9832 8.03379 13.9833C8.03395 13.9834 8.03408 13.9835 8.5 13.3332ZM3.3 5.81816C3.30009 5.27247 3.48734 4.7447 3.82833 4.32448L2.58592 3.31631C2.01264 4.02278 1.70015 4.90677 1.7 5.81789L3.3 5.81816ZM3.82833 4.32448C4.16919 3.90444 4.64225 3.61806 5.1662 3.51203L4.84883 1.94382C3.95864 2.12397 3.15934 2.60967 2.58592 3.31631L3.82833 4.32448ZM5.1662 3.51203C5.69005 3.40602 6.23436 3.48639 6.70705 3.74027L7.46413 2.33072C6.66342 1.90065 5.73911 1.76365 4.84883 1.94382L5.1662 3.51203ZM6.70705 3.74027C7.17991 3.99425 7.55288 4.40683 7.76071 4.90946L9.2393 4.2981C8.8913 3.45646 8.26468 2.76071 7.46413 2.33072L6.70705 3.74027ZM9.2393 4.90946C9.44713 4.40682 9.82009 3.99425 10.2929 3.74027L9.53586 2.33073C8.73531 2.76071 8.10871 3.45646 7.76071 4.2981L9.2393 4.90946ZM10.2929 3.74027C10.7656 3.48639 11.31 3.40602 11.8338 3.51203L12.1512 1.94382C11.2609 1.76365 10.3366 1.90065 9.53586 2.33073L10.2929 3.74027ZM11.8338 3.51203C12.3577 3.61806 12.8308 3.90444 13.1717 4.32448L14.4141 3.31631C13.8407 2.60967 13.0414 2.12397 12.1512 1.94382L11.8338 3.51203ZM13.1717 4.32448C13.5127 4.7447 13.6999 5.27247 13.7 5.81816L15.3 5.81789C15.2998 4.90677 14.9874 4.02278 14.4141 3.31631L13.1717 4.32448ZM13.7 5.81802C13.7 6.39098 13.4241 7.10366 12.8941 7.9095C12.3745 8.69952 11.6677 9.49394 10.9387 10.2116C10.2131 10.926 9.48441 11.546 8.93553 11.9883C8.66169 12.209 8.43407 12.3842 8.27586 12.5036C8.19679 12.5633 8.13515 12.609 8.09386 12.6393C8.07322 12.6545 8.05767 12.6658 8.04758 12.6731C8.04253 12.6768 8.03885 12.6794 8.03658 12.681C8.03545 12.6819 8.03467 12.6824 8.03424 12.6827C8.03403 12.6829 8.03391 12.683 8.03388 12.683C8.03386 12.683 8.03391 12.683 8.0339 12.683C8.03397 12.6829 8.03406 12.6829 8.5 13.3332C8.96594 13.9835 8.96608 13.9834 8.96624 13.9833C8.96632 13.9832 8.9665 13.9831 8.96667 13.983C8.967 13.9827 8.96743 13.9824 8.96794 13.982C8.96897 13.9813 8.97037 13.9803 8.97211 13.979C8.97561 13.9765 8.98054 13.973 8.98685 13.9684C8.99946 13.9592 9.0176 13.946 9.04091 13.9289C9.08751 13.8947 9.15478 13.8448 9.23977 13.7807C9.40968 13.6524 9.65081 13.4667 9.93947 13.2341C10.5156 12.7699 11.2869 12.1141 12.0613 11.3517C12.8323 10.5926 13.6255 9.70924 14.2309 8.78866C14.8259 7.8839 15.3 6.85314 15.3 5.81802H13.7Z" fill="#FFBC3A"/>
</svg>
