<svg width="28" height="28" viewBox="0 0 28 28" fill="none" xmlns="http://www.w3.org/2000/svg">
<path d="M2.4554 5.00564C2.31084 4.05152 3.46805 3.46635 4.15081 4.14832L13.2933 13.2802C13.6837 13.6702 14.3163 13.6702 14.7067 13.2802L23.8492 4.14832C24.532 3.46635 25.6892 4.05152 25.5446 5.00565L22.947 22.1498C22.8729 22.6387 22.4527 23 21.9583 23H6.04172C5.54728 23 5.12707 22.6387 5.053 22.1498L2.4554 5.00564Z" fill="#E8E8E8"/>
<path d="M13.1056 3.78885C13.4741 3.0518 14.5259 3.05181 14.8944 3.78885L22.2764 18.5528C22.6088 19.2177 22.1253 20 21.382 20H6.61803C5.87465 20 5.39116 19.2177 5.72361 18.5528L13.1056 3.78885Z" fill="#E8E8E8"/>
<rect x="4" y="21" width="20" height="4" rx="2" fill="#CCCCCC"/>
<path d="M11.4449 19.9999L11.0369 18.9919L13.4489 16.3279C13.5929 16.1759 13.7449 16.0039 13.9049 15.8119C14.0649 15.6199 14.2169 15.4239 14.3609 15.2239C14.5129 15.0159 14.6329 14.8159 14.7209 14.6239C14.8169 14.4319 14.8649 14.2599 14.8649 14.1079C14.8649 13.9479 14.8289 13.8079 14.7569 13.6879C14.6929 13.5679 14.5929 13.4759 14.4569 13.4119C14.3289 13.3399 14.1609 13.3039 13.9529 13.3039C13.7769 13.3039 13.6049 13.3519 13.4369 13.4479C13.2689 13.5439 13.1089 13.6879 12.9569 13.8799C12.8129 14.0639 12.6769 14.2999 12.5489 14.5879L11.0369 13.7479C11.2049 13.2839 11.4409 12.8759 11.7449 12.5239C12.0569 12.1719 12.4209 11.8959 12.8369 11.6959C13.2529 11.4959 13.6969 11.3999 14.1689 11.4079C14.6649 11.4079 15.1089 11.5119 15.5009 11.7199C15.9009 11.9279 16.2169 12.2159 16.4489 12.5839C16.6889 12.9439 16.8089 13.3679 16.8089 13.8559C16.8089 14.0719 16.7769 14.2959 16.7129 14.5279C16.6569 14.7599 16.5609 15.0079 16.4249 15.2719C16.2969 15.5279 16.1249 15.8039 15.9089 16.0999C15.6929 16.3959 15.4289 16.7159 15.1169 17.0599L13.2569 19.0879L13.0049 18.1879H17.1809V19.9999H11.4449Z" fill="#565656"/>
</svg>
