<svg width="28" height="28" viewBox="0 0 28 28" fill="none" xmlns="http://www.w3.org/2000/svg">
<path d="M2.4554 5.00564C2.31084 4.05152 3.46805 3.46635 4.15081 4.14832L13.2933 13.2802C13.6837 13.6702 14.3163 13.6702 14.7067 13.2802L23.8492 4.14832C24.532 3.46635 25.6892 4.05152 25.5446 5.00565L22.947 22.1498C22.8729 22.6387 22.4527 23 21.9583 23H6.04172C5.54728 23 5.12707 22.6387 5.053 22.1498L2.4554 5.00564Z" fill="#FFCE6E"/>
<path d="M13.1056 3.78885C13.4741 3.0518 14.5259 3.05181 14.8944 3.78885L22.2764 18.5528C22.6088 19.2177 22.1253 20 21.382 20H6.61803C5.87465 20 5.39116 19.2177 5.72361 18.5528L13.1056 3.78885Z" fill="#FFCE6E"/>
<rect x="4" y="21" width="20" height="4" rx="2" fill="#FFB019"/>
<path d="M13.6632 19.4V12.62L14.1192 13.628L12.3312 14.468L11.9712 12.656L14.3712 11.48H15.6792V19.4H13.6632ZM12.1392 20V18.188H17.2512V20H12.1392Z" fill="#815000"/>
<circle cx="24.5" cy="5" r="2" fill="#FFCE6E"/>
<circle cx="14" cy="4" r="2" fill="#FFCE6E"/>
<circle cx="3.5" cy="5" r="2" fill="#FFCE6E"/>
</svg>
