<svg width="28" height="28" viewBox="0 0 28 28" fill="none" xmlns="http://www.w3.org/2000/svg">
<path d="M2.4554 5.00564C2.31084 4.05152 3.46805 3.46635 4.15081 4.14832L13.2933 13.2802C13.6837 13.6702 14.3163 13.6702 14.7067 13.2802L23.8492 4.14832C24.532 3.46635 25.6892 4.05152 25.5446 5.00565L22.947 22.1498C22.8729 22.6387 22.4527 23 21.9583 23H6.04172C5.54728 23 5.12707 22.6387 5.053 22.1498L2.4554 5.00564Z" fill="#EFC89B"/>
<path d="M13.1056 3.78885C13.4741 3.0518 14.5259 3.05181 14.8944 3.78885L22.2764 18.5528C22.6088 19.2177 22.1253 20 21.382 20H6.61803C5.87465 20 5.39116 19.2177 5.72361 18.5528L13.1056 3.78885Z" fill="#EFC89B"/>
<rect x="4" y="21" width="20" height="4" rx="2" fill="#EBAC54"/>
<path d="M13.8988 20.1201C13.2188 20.1201 12.6268 19.9801 12.1228 19.7001C11.6188 19.4121 11.1548 18.9201 10.7308 18.2241L12.2188 17.2881C12.3868 17.5601 12.5628 17.7801 12.7468 17.9481C12.9388 18.1161 13.1348 18.2401 13.3348 18.3201C13.5428 18.3921 13.7548 18.4281 13.9708 18.4281C14.1948 18.4281 14.3988 18.3801 14.5828 18.2841C14.7668 18.1801 14.9148 18.0401 15.0268 17.8641C15.1388 17.6801 15.1948 17.4681 15.1948 17.2281C15.1948 16.9801 15.1468 16.7761 15.0508 16.6161C14.9548 16.4481 14.8148 16.3201 14.6308 16.2321C14.4468 16.1441 14.2228 16.1001 13.9588 16.1001C13.8468 16.1001 13.7188 16.1161 13.5748 16.1481C13.4388 16.1721 13.2948 16.2081 13.1428 16.2561C12.9908 16.3041 12.8348 16.3601 12.6748 16.4241L12.2308 15.2361L14.2468 13.0161L14.7988 13.3281L11.3188 13.2681V11.5281H16.4788L16.8628 12.2721L14.0908 15.2361L13.6228 14.6721C13.6868 14.6481 13.7908 14.6241 13.9348 14.6001C14.0788 14.5681 14.2148 14.5521 14.3428 14.5521C14.7108 14.5521 15.0588 14.6201 15.3868 14.7561C15.7148 14.8921 16.0068 15.0801 16.2628 15.3201C16.5188 15.5601 16.7188 15.8401 16.8628 16.1601C17.0068 16.4801 17.0788 16.8281 17.0788 17.2041C17.0788 17.7641 16.9348 18.2641 16.6468 18.7041C16.3668 19.1441 15.9868 19.4921 15.5068 19.7481C15.0268 19.9961 14.4908 20.1201 13.8988 20.1201Z" fill="#966300"/>
</svg>
