<svg width="111" height="110" viewBox="0 0 111 110" fill="none" xmlns="http://www.w3.org/2000/svg">
<g clip-path="url(#clip0_2754_6240)">
<path d="M84.037 54.2429C88.3775 53.5619 92.5347 56.5252 92.4505 60.9179C92.3203 67.7019 90.597 74.3787 87.3741 80.3803C82.9016 88.7086 75.7957 95.2628 67.1767 99.0096C58.5577 102.756 48.9158 103.483 39.7713 101.074C33.1826 99.3383 27.1221 96.0464 22.069 91.5169C18.796 88.583 19.4632 83.5189 22.9234 80.8082L48.3819 60.8639C49.456 60.0225 50.7274 59.4697 52.0753 59.2582L84.037 54.2429Z" fill="#B8AFA8"/>
<path d="M30.7529 97.7109C22.3295 93.2669 15.642 86.1779 11.7449 77.5618C7.84774 68.9456 6.96256 59.2924 9.22892 50.124C11.4953 40.9556 16.7843 32.7937 24.262 26.9249C29.6382 22.7055 35.9259 19.844 42.5837 18.5305C46.9176 17.6754 50.5681 21.2912 50.6171 25.7084L50.977 58.144C50.9921 59.5011 50.6617 60.8396 50.0169 62.0337L30.7529 97.7109Z" fill="#DFD8D2"/>
<path d="M56.7154 14.445C56.6088 10.028 60.1281 6.28936 64.4966 6.95112C72.3097 8.13468 79.7324 11.3254 86.0103 16.2719C92.2882 21.2185 97.1269 27.6888 100.105 35.0082C101.771 39.1006 98.9591 43.3969 94.6398 44.3266L67.0763 50.2595C62.1713 51.3153 57.5162 47.6475 57.3952 42.6315L56.7154 14.445Z" fill="#A39A93"/>
<rect x="70" y="76" width="32" height="32" rx="16" fill="#524A44"/>
<circle cx="80.6663" cy="92.0013" r="1.33333" fill="white"/>
<circle cx="86.0003" cy="92.0013" r="1.33333" fill="white"/>
<ellipse cx="91.3333" cy="92.0013" rx="1.33333" ry="1.33333" fill="white"/>
</g>
<defs>
<clipPath id="clip0_2754_6240">
<rect width="110" height="110" fill="white" transform="translate(0.5)"/>
</clipPath>
</defs>
</svg>
