<svg width="25" height="24" viewBox="0 0 25 24" fill="none" xmlns="http://www.w3.org/2000/svg">
<path d="M10.5 2V4M14.5 2V4M16.5 8C16.7652 8 17.0196 8.10536 17.2071 8.29289C17.3946 8.48043 17.5 8.73478 17.5 9V17C17.5 18.0609 17.0786 19.0783 16.3284 19.8284C15.5783 20.5786 14.5609 21 13.5 21H7.5C6.43913 21 5.42172 20.5786 4.67157 19.8284C3.92143 19.0783 3.5 18.0609 3.5 17V9C3.5 8.73478 3.60536 8.48043 3.79289 8.29289C3.98043 8.10536 4.23478 8 4.5 8H18.5C19.5609 8 20.5783 8.42143 21.3284 9.17157C22.0786 9.92172 22.5 10.9391 22.5 12C22.5 13.0609 22.0786 14.0783 21.3284 14.8284C20.5783 15.5786 19.5609 16 18.5 16H17.5M6.5 2V4" stroke="#8F867E" stroke-width="2" stroke-linecap="round" stroke-linejoin="round"/>
</svg>
