<svg width="16" height="17" viewBox="0 0 16 17" fill="none" xmlns="http://www.w3.org/2000/svg">
<g id="Group 1372">
<path id="Rectangle 40045" d="M7.08367 4.05771C7.13074 3.58699 7.52684 3.22852 7.99992 3.22852C8.47299 3.22852 8.8691 3.58699 8.91617 4.05771L9.50075 9.90345C9.58954 10.7914 8.89227 11.5618 7.99992 11.5618C7.10757 11.5618 6.4103 10.7914 6.49909 9.90345L7.08367 4.05771Z" fill="#FFDE9D"/>
<path id="Rectangle 40046" d="M8.08598 3.73777C7.97863 2.2074 9.13221 0.879772 10.6626 0.772421L11.771 0.694671C13.3013 0.587321 14.629 1.7409 14.7363 3.27126C14.7578 3.57734 14.5271 3.84286 14.221 3.86433L8.67905 4.25308C8.37297 4.27455 8.10745 4.04384 8.08598 3.73777Z" fill="#FFBC3A"/>
<path id="Rectangle 40050" d="M8.02267 3.73777C8.13002 2.2074 6.97644 0.879772 5.44607 0.772421L4.33768 0.694671C2.80732 0.587321 1.47969 1.7409 1.37234 3.27126C1.35087 3.57734 1.58159 3.84286 1.88766 3.86433L7.4296 4.25308C7.73567 4.27455 8.0012 4.04384 8.02267 3.73777Z" fill="#FFBC3A"/>
<path id="Rectangle 40047" d="M8.1906 3.52669C9.27539 2.4419 11.0342 2.4419 12.119 3.52669L12.9046 4.31236C13.9894 5.39715 13.9894 7.15594 12.9046 8.24073C12.6877 8.45769 12.3359 8.45769 12.119 8.24073L8.1906 4.31236C7.97364 4.0954 7.97364 3.74364 8.1906 3.52669Z" fill="#FFBC3A"/>
<path id="Rectangle 40049" d="M8.01155 3.52669C6.92676 2.4419 5.16797 2.4419 4.08318 3.52669L3.2975 4.31236C2.21271 5.39715 2.21271 7.15594 3.2975 8.24073C3.51446 8.45769 3.86622 8.45769 4.08318 8.24073L8.01155 4.31236C8.22851 4.0954 8.22851 3.74364 8.01155 3.52669Z" fill="#FFBC3A"/>
<path id="Rectangle 40044" d="M1.21984 13.6838C1.77629 11.458 3.77621 9.89648 6.07055 9.89648H9.92945C12.2238 9.89648 14.2237 11.458 14.7802 13.6838L14.8787 14.0781C15.1943 15.3404 14.2396 16.5632 12.9384 16.5632H3.06155C1.76041 16.5632 0.805694 15.3404 1.12127 14.0781L1.21984 13.6838Z" fill="#FFBC3A"/>
</g>
</svg>
