<svg width="17" height="16" viewBox="0 0 17 16" fill="none" xmlns="http://www.w3.org/2000/svg">
<path d="M12.527 6.39402C10.7741 4.34347 10.1667 3.66667 9.5 2C6.83334 3.66667 6.16667 5 7.68621 7.95966C6.16667 9 5.13384 8.15489 4.83333 7.66667C3.59293 8.94442 2.99584 10.5561 4.18335 12.3179C6.06608 15.1112 10.7735 15.6561 13.1699 12.6214C14.8298 10.5194 14.2798 8.44456 12.527 6.39402Z" fill="#FFBC3A" stroke="#FFBC3A" stroke-width="1.4" stroke-linecap="round" stroke-linejoin="round"/>
<path d="M10.5003 12.8887C10.5003 14.116 9.75413 14.6665 8.83366 14.6665C7.91318 14.6665 7.16699 14.116 7.16699 12.8887C7.16699 11.6614 8.83366 10.6665 8.83366 10.6665C8.83366 10.6665 10.5003 11.6614 10.5003 12.8887Z" fill="#FFDE9D" stroke="#FFDE9D" stroke-width="1.4"/>
</svg>
