<svg width="24" height="24" viewBox="0 0 24 24" fill="none" xmlns="http://www.w3.org/2000/svg">
<path fill-rule="evenodd" clip-rule="evenodd" d="M8 9C6.89543 9 6 9.89543 6 11V19C6 20.1046 6.89543 21 8 21H16C17.1046 21 18 20.1046 18 19V11C18 9.89543 17.1046 9 16 9H8ZM9.99998 12.1C10.497 12.1 10.9 12.5029 10.9 13V17C10.9 17.497 10.497 17.9 9.99998 17.9C9.50292 17.9 9.09998 17.497 9.09998 17V13C9.09998 12.5029 9.50292 12.1 9.99998 12.1ZM14 12.1C14.497 12.1 14.9 12.5029 14.9 13V17C14.9 17.497 14.497 17.9 14 17.9C13.5029 17.9 13.1 17.497 13.1 17V13C13.1 12.5029 13.5029 12.1 14 12.1Z" fill="#524A44"/>
<path fill-rule="evenodd" clip-rule="evenodd" d="M11 3C9.89543 3 9 3.89543 9 5H6.5C5.67157 5 5 5.67157 5 6.5C5 7.32843 5.67157 8 6.5 8H17.5C18.3284 8 19 7.32843 19 6.5C19 5.67157 18.3284 5 17.5 5H15C15 3.89543 14.1046 3 13 3H11Z" fill="#524A44"/>
</svg>
