<svg width="32" height="33" viewBox="0 0 32 33" fill="none" xmlns="http://www.w3.org/2000/svg">
<path d="M19.0476 16.7938C23.8296 16.7939 27.7068 20.6704 27.707 25.4524C27.7069 27.7097 25.8767 29.5404 23.6195 29.5407H8.3812C6.12375 29.5407 4.29383 27.7098 4.2937 25.4524C4.29386 20.6704 8.17027 16.794 12.9523 16.7938H19.0476ZM12.9523 18.8735C9.31902 18.8736 6.37355 21.8191 6.37339 25.4524C6.37352 26.5611 7.27251 27.4602 8.3812 27.4602H23.6195C24.728 27.4599 25.6264 26.5609 25.6265 25.4524C25.6264 21.8191 22.6809 18.8736 19.0476 18.8735H12.9523ZM16 3.46021C19.5197 3.46035 22.3734 6.31383 22.3734 9.83364C22.3732 13.3533 19.5196 16.2069 16 16.2071C12.4803 16.2069 9.62665 13.3533 9.62651 9.83364C9.62651 6.31383 12.4802 3.46035 16 3.46021ZM16 5.53989C13.6289 5.54003 11.7062 7.46259 11.7062 9.83364C11.7063 12.2046 13.629 14.1265 16 14.1266C18.3709 14.1265 20.2928 12.2046 20.2929 9.83364C20.2929 7.46259 18.371 5.54003 16 5.53989Z" fill="#B8AFA8"/>
</svg>
